<svg width="40" height="40" viewBox="0 0 40 40" fill="none" xmlns="http://www.w3.org/2000/svg">
    <path d="M22 5.4641L31.5885 11C32.8261 11.7145 33.5885 13.035 33.5885 14.4641V25.5359C33.5885 26.965 32.8261 28.2855 31.5885 29L22 34.5359C20.7624 35.2504 19.2376 35.2504 18 34.5359L8.41154 29C7.17394 28.2855 6.41154 26.965 6.41154 25.5359V14.4641C6.41154 13.035 7.17394 11.7145 8.41154 11L18 5.4641C19.2376 4.74957 20.7624 4.74957 22 5.4641Z"
          fill="#CFE8F7" stroke="#4081EC" stroke-width="4"/>
    <rect x="13.5" y="14.5" width="5.5" height="2.5" rx="0.5" stroke="#35B96B"/>
    <rect x="21" y="18.5" width="5.5" height="2.5" rx="0.5" stroke="#35B96B"/>
    <rect x="21" y="24" width="5.5" height="2.5" rx="0.5" stroke="#35B96B"/>
    <path d="M16 18.5V19.5M19.5 25C18.8097 25 18.1734 25.0169 17.5 25C17.1979 24.9924 16.9891 25.0438 16.65 24.85C16.2709 24.6334 16 24.3333 16 24V19.5M16 19.5H19.5"
          stroke="#35B96B" stroke-linecap="round"/>
</svg>
